<svg xmlns="http://www.w3.org/2000/svg" width="540" height="500"><g fill="#121212"><path d="M251.287 34.116c14.766-.476 29.515-.387 43.96 3.112 36.508 8.844 66.466 31.425 85.346 63.842 2.572 4.415 4.999 8.915 7.01 13.616 1.759 4.11 3.227 8.956 5.575 12.724l.168.265c3.643-.255 7.211.004 10.85.152 3.716.152 7.45.246 11.139.741 17.206 2.313 34.106 9.579 48.251 19.528 24.825 17.461 43.267 43.868 48.479 74.046 1.242 7.191 1.658 14.347 1.664 21.633.02 25.956-7.27 50.948-22.685 72.002-3.359 4.588-7.057 9.217-11.178 13.149-3.367 3.212-7.038 6.429-10.718 9.276-3.178 2.459-11.178 6.897-13.11 9.698l-.145.219c-.54 9.019.394 18.131-.216 27.154-.813 12.016-6.867 23.451-15.138 31.989-7.594 7.839-19.167 13.021-29.948 14.294-7.246.855-14.968.407-22.277.417q-16.104-.064-32.209.067c-4.3 2.658-8.149 7.134-11.754 10.659a2339 2339 0 0 0-19.964 19.76c-3.03 3.019-6.609 7.331-10.499 9.157-3.49 1.638-7.945 1.93-11.58.597-3.345-1.227-6.307-4.148-7.805-7.357-.681-1.634-1.145-3.139-1.387-4.898-.506-3.663-.35-7.437-.351-11.129 0-6.993.171-14.024-.318-21.002-1.723-2.722-5.234-4.653-7.722-6.687-9.257-7.568-16.616-18.616-18.919-30.401-1-5.117-1.083-10.339-1.615-15.512-.364-3.542-.438-3.698-4.034-3.688l-92.65-.002-27.034-.031c-14.905-.015-26.647-.02-41.421-3.52a98.8 98.8 0 0 1-39.388-19.604 96.68 96.68 0 0 1-35.118-65.013c-2.26-22.477 1.557-44.229 13.054-63.798 2.292-3.902 4.78-7.86 7.646-11.365 16.654-20.357 39.097-33.585 65.192-37.513 6.098-.917 12.226-.652 18.343-1.267.777-5.852 1.311-11.617 2.54-17.413a135.04 135.04 0 0 1 26.303-56.104c1.857-2.351 3.701-4.783 5.748-6.97 4.864-5.197 9.86-10.488 15.265-15.121a126.9 126.9 0 0 1 50.437-25.906c7.157-1.876 14.799-3.541 22.213-3.796m30.154 278.023.293-.28c6.134-5.809 14.952-10.05 23.163-11.876 7.938-1.766 15.784-1.606 23.863-1.615l19.821-.03 36.447.021c6.481.025 12.996-.06 19.472.154 15.396.509 26.967 4.819 37.62 16.332 2.672 2.888 4.916 6.875 7.33 9.387.405.421.752.71 1.337.832 2.296-.661 4.46-2.71 6.304-4.201 9.414-7.616 17.424-16.757 23.301-27.38 12.151-21.962 15.867-51.936 8.88-76.113-7.456-25.803-23.976-45.584-47.406-58.481-15.17-8.349-31.897-11.432-49.078-10.284-4.067.272-9.335 1.897-13.309.818-3.1-.842-4.301-3.953-5.113-6.726-1.49-5.088-2.462-10.16-4.362-15.138-9.063-23.751-26.873-45.659-49.294-57.98-15.957-8.77-30.15-13.164-48.234-14.768-5.228-.463-11.106-.82-16.326-.21-6.815.795-13.707 1.518-20.384 3.157-24.359 5.979-45.795 20.685-61.253 40.267-12.782 16.193-21.613 36.706-23.58 57.306-.554 5.797.073 14.549-1.846 19.851-1.09 3.009-3.819 5.373-7.044 5.755-3.501.415-7.18-.038-10.688-.262a95 95 0 0 0-10.77-.148c-21.854 1.075-44.217 12.45-57.936 29.47-14 17.37-19.235 39.134-16.838 61.158a77.4 77.4 0 0 0 28.628 51.616A79.26 79.26 0 0 0 109.3 338.7c8.343 1.621 16.57 1.648 25.032 1.711l22.848.063 69.335.02c8.712-.03 17.422.276 26.138.297 3.487.009 7.23.281 10.688-.149q.741-.089 1.455-.306c1.724-2.279 2.384-5.903 3.373-8.577 2.729-7.38 7.511-14.279 13.273-19.62m84.521 89.907 25.219.009c6.454-.001 13.379.543 19.689-.908 6.001-1.38 11.148-3.955 15.54-8.301 8.229-8.143 9.088-17.662 9.08-28.556-.009-13.645.961-25.917-9.604-36.522-3.524-3.538-8.658-6.683-13.531-7.862-6.202-1.501-20.66-.851-27.736-.863l-50.403.007-12.402.078c-11.171.045-19.698 1.654-27.906 10.007-8.312 8.458-9.091 17.578-9.065 28.71l.066 11.922c.115 7.931 3.414 16.923 9.2 22.505a38.3 38.3 0 0 0 5.657 4.44c3.679 2.369 8.818 4.314 11.031 8.281.891 1.597 1.1 3.43 1.142 5.227.071 3.101-.62 22.021.575 23.299.28.299.542.317.92.438 1.144-.282 2.014-.923 2.912-1.658 3.014-2.467 5.692-5.526 8.444-8.285 3.519-3.531 7.155-6.943 10.697-10.451 3.857-3.818 7.488-8.4 12.755-10.217 5.612-1.936 11.858-1.333 17.72-1.3"/><path d="M324.075 190.95c15.082-2.154 29.056 8.324 31.215 23.405s-8.313 29.059-23.394 31.224c-15.088 2.165-29.074-8.314-31.234-23.403s8.323-29.071 23.413-31.226m-110.527.091c15.04-2.449 29.218 7.759 31.667 22.799 2.449 15.041-7.758 29.219-22.799 31.668-15.04 2.449-29.219-7.758-31.668-22.799s7.759-29.219 22.8-31.668M358.25 352.789a8.696 8.696 0 1 1 3.633 17.003 8.695 8.695 0 0 1-3.633-17.003m34.026.24c1.956-.064 3.961-.247 5.851.369 2.127.693 3.938 2.161 4.929 4.187 1.037 2.119 1.081 4.725.208 6.907-1.061 2.653-3 3.943-5.528 5.003-1.712.359-3.553.424-5.25-.057-2.283-.647-4.095-2.2-5.18-4.301a8.6 8.6 0 0 1-.473-6.913c1.001-2.688 2.993-4.014 5.443-5.195m-68.961-.207a8.615 8.615 0 0 1 3.595 16.851 8.615 8.615 0 1 1-3.595-16.851"/></g></svg>
